<svg width="181" height="117" viewBox="0 0 181 117" fill="none" xmlns="http://www.w3.org/2000/svg">
<g clip-path="url(#clip0)">
<path d="M29.289 54.3489C31.9283 54.3489 34.0678 52.2101 34.0678 49.5718C34.0678 46.9336 31.9283 44.7948 29.289 44.7948C26.6498 44.7948 24.5103 46.9336 24.5103 49.5718C24.5103 52.2101 26.6498 54.3489 29.289 54.3489Z" fill="#FFB8B8"/>
<path d="M13.1417 106.817L14.3517 108.872L22.8567 105.184L21.0707 102.152L13.1417 106.817Z" fill="#FFB8B8"/>
<path d="M13.5043 105.898L15.8872 109.945L15.8873 109.945C16.0867 110.284 16.2175 110.658 16.2721 111.048C16.3266 111.437 16.304 111.833 16.2054 112.213C16.1069 112.594 15.9343 112.951 15.6976 113.265C15.4609 113.579 15.1647 113.843 14.8258 114.042L14.742 114.091L10.8405 107.465L13.5043 105.898Z" fill="#2F2E41"/>
<path d="M27.1616 114.22L29.547 114.22L30.6818 105.023L27.1613 105.023L27.1616 114.22Z" fill="#FFB8B8"/>
<path d="M26.5533 113.442L31.251 113.441H31.2511C31.6443 113.441 32.0336 113.519 32.3968 113.669C32.76 113.82 33.09 114.04 33.368 114.318C33.646 114.596 33.8665 114.926 34.017 115.289C34.1674 115.652 34.2449 116.041 34.2449 116.434V116.531L26.5535 116.532L26.5533 113.442Z" fill="#2F2E41"/>
<path d="M17.5718 108.648C17.4345 108.648 17.2991 108.616 17.1766 108.554C17.0541 108.492 16.9479 108.402 16.8667 108.291L14.5661 105.168C14.496 105.073 14.4458 104.964 14.4188 104.849C14.3917 104.734 14.3883 104.614 14.4088 104.498C14.4292 104.381 14.4731 104.27 14.5378 104.171C14.6024 104.072 14.6865 103.987 14.7849 103.921L25.0219 97.0862L18.8451 80.8506L32.0541 81.9403L32.499 95.8922C32.5408 97.1628 32.2361 98.4209 31.6177 99.5317C30.9992 100.643 30.0902 101.564 28.988 102.199L18.0092 108.53C17.8763 108.607 17.7254 108.648 17.5718 108.648Z" fill="#2F2E41"/>
<path d="M27.2337 112.353C27.0071 112.352 26.7896 112.264 26.6267 112.107C26.4639 111.949 26.3684 111.735 26.3603 111.509L25.8762 97.917L31.8705 97.6013L31.3932 111.291C31.3862 111.508 31.2986 111.714 31.1475 111.87C30.9965 112.026 30.7927 112.12 30.5761 112.133L27.2932 112.351C27.2733 112.352 27.2534 112.353 27.2337 112.353Z" fill="#2F2E41"/>
<path d="M33.5827 84.6394C32.0576 84.6394 26.7306 82.9246 24.8814 82.3134C24.6047 82.5347 23.0849 83.6707 21.3108 83.4631C20.2162 83.3347 19.2525 82.7153 18.4466 81.622C16.6669 79.2075 18.865 68.853 21.0225 60.5919C21.455 58.922 22.5183 57.4848 23.9889 56.5824C25.4594 55.68 27.2227 55.3826 28.908 55.7528C30.1295 56.0224 31.2517 56.6271 32.1483 57.499C33.045 58.371 33.6806 59.4756 33.9839 60.6887C34.39 62.3416 34.0406 64.2858 33.7855 65.7056C33.6655 66.373 33.5708 66.9003 33.6032 67.1594C33.7284 68.1607 34.424 83.865 33.9767 84.5357C33.9291 84.6071 33.7913 84.6394 33.5827 84.6394Z" fill="#6C63FF"/>
<path d="M28.0035 84.6672C28.2486 84.4848 28.4507 84.2509 28.5956 83.9819C28.7405 83.713 28.8246 83.4156 28.8421 83.1106C28.8596 82.8057 28.8099 82.5006 28.6967 82.2169C28.5835 81.9332 28.4094 81.6777 28.1867 81.4685L28.2811 62.4383L23.7974 63.1847L25.1144 81.6561C24.7877 82.0533 24.6181 82.5566 24.6377 83.0705C24.6574 83.5844 24.8649 84.0732 25.221 84.4444C25.5772 84.8156 26.0571 85.0432 26.5699 85.0843C27.0827 85.1254 27.5928 84.977 28.0035 84.6672Z" fill="#FFB8B8"/>
<path d="M29.0406 74.6597H24.2111C23.9804 74.659 23.7593 74.5677 23.5955 74.4054C23.4317 74.2431 23.3383 74.0229 23.3355 73.7924L23.2169 60.7043C23.2128 60.2518 23.2985 59.8029 23.4691 59.3837C23.6396 58.9644 23.8916 58.5831 24.2105 58.2619C24.5293 57.9406 24.9088 57.6857 25.3268 57.512C25.7449 57.3382 26.1932 57.249 26.646 57.2496C27.0987 57.2501 27.5468 57.3404 27.9645 57.5152C28.3821 57.69 28.7609 57.9458 29.079 58.2678C29.3971 58.5899 29.6481 58.9718 29.8176 59.3914C29.9872 59.8111 30.0717 60.2602 30.0665 60.7127L29.9161 73.7945C29.9127 74.0246 29.819 74.2442 29.6553 74.406C29.4916 74.5678 29.2708 74.6589 29.0406 74.6597Z" fill="#6C63FF"/>
<path d="M28.0722 54.329C25.8843 54.333 23.8201 52.6042 23.441 50.4501C23.3052 49.6038 23.3664 48.7377 23.6198 47.9189C23.895 46.9869 24.3668 46.1246 25.0035 45.3903C25.6402 44.6559 26.4271 44.0666 27.3109 43.6619C28.1948 43.2573 29.1552 43.0468 30.1273 43.0446C31.0995 43.0424 32.0608 43.2486 32.9465 43.6492C33.5318 43.914 34.1083 44.2942 34.3764 44.8779C34.6444 45.4616 34.4766 46.2774 33.8903 46.54C33.5072 46.7116 33.0264 46.6274 32.6865 46.8737C32.1983 47.2276 32.324 47.9806 32.542 48.5427C32.76 49.1048 33.0066 49.7849 32.6411 50.2645C32.3006 50.7113 31.6199 50.6974 31.0837 50.5293C30.5476 50.3611 30.0183 50.0794 29.4593 50.1367C28.644 50.2203 28.0581 51.031 27.9497 51.843C27.8412 52.6551 28.0965 53.4669 28.3486 54.2465L28.0722 54.329Z" fill="#2F2E41"/>
<path d="M50.3931 116.715H0.194568C0.142965 116.715 0.093476 116.694 0.0569874 116.658C0.0204989 116.621 0 116.572 0 116.52C0 116.468 0.0204989 116.419 0.0569874 116.383C0.093476 116.346 0.142965 116.326 0.194568 116.326H50.3931C50.4447 116.326 50.4942 116.346 50.5306 116.383C50.5671 116.419 50.5876 116.468 50.5876 116.52C50.5876 116.572 50.5671 116.621 50.5306 116.658C50.4942 116.694 50.4447 116.715 50.3931 116.715Z" fill="#CCCCCC"/>
<path d="M177.08 84.5181H52.3938C51.5427 84.5172 50.7267 84.1788 50.1248 83.5771C49.523 82.9755 49.1844 82.1598 49.1835 81.309V4.45283C49.1842 3.8295 49.4322 3.23189 49.8731 2.79112C50.314 2.35035 50.9118 2.1024 51.5354 2.10168H177.898C178.532 2.10241 179.141 2.35463 179.589 2.80303C180.038 3.25142 180.29 3.85936 180.291 4.49348V81.309C180.29 82.1598 179.951 82.9755 179.349 83.5771C178.748 84.1788 177.932 84.5172 177.08 84.5181Z" fill="#F2F2F2"/>
<path d="M173.049 80.4663H56.8444C55.141 80.4663 53.7551 79.169 53.7551 77.5745V10.6472C53.7551 9.46463 54.7821 8.5025 56.0443 8.5025H173.811C175.094 8.5025 176.138 9.4805 176.138 10.6825V77.5745C176.138 79.169 174.752 80.4663 173.049 80.4663Z" fill="white"/>
<path d="M180.246 4.85273H49.1384V3.21888C49.1397 2.36521 49.4796 1.5469 50.0836 0.94345C50.6877 0.340003 51.5065 0.000707846 52.3605 0H177.024C177.878 0.000700647 178.697 0.339992 179.301 0.943441C179.905 1.54689 180.245 2.36521 180.246 3.21888V4.85273Z" fill="#3F3D56"/>
<path d="M54.9941 3.2643C55.4543 3.2643 55.8275 2.89131 55.8275 2.43119C55.8275 1.97108 55.4543 1.59808 54.9941 1.59808C54.5338 1.59808 54.1606 1.97108 54.1606 2.43119C54.1606 2.89131 54.5338 3.2643 54.9941 3.2643Z" fill="white"/>
<path d="M58.1575 3.2643C58.6178 3.2643 58.9909 2.89131 58.9909 2.43119C58.9909 1.97108 58.6178 1.59808 58.1575 1.59808C57.6972 1.59808 57.3241 1.97108 57.3241 2.43119C57.3241 2.89131 57.6972 3.2643 58.1575 3.2643Z" fill="white"/>
<path d="M61.321 3.2643C61.7812 3.2643 62.1544 2.89131 62.1544 2.43119C62.1544 1.97108 61.7812 1.59808 61.321 1.59808C60.8607 1.59808 60.4875 1.97108 60.4875 2.43119C60.4875 2.89131 60.8607 3.2643 61.321 3.2643Z" fill="white"/>
<path d="M112.19 23.1363H89.4627C89.1239 23.1363 88.799 23.0017 88.5594 22.7622C88.3198 22.5227 88.1852 22.1979 88.1852 21.8592C88.1852 21.5205 88.3198 21.1956 88.5594 20.9561C88.799 20.7166 89.1239 20.5821 89.4627 20.5821H112.19C112.529 20.5821 112.854 20.7166 113.093 20.9561C113.333 21.1956 113.467 21.5205 113.467 21.8592C113.467 22.1979 113.333 22.5227 113.093 22.7622C112.854 23.0017 112.529 23.1363 112.19 23.1363Z" fill="#CCCCCC"/>
<path d="M140.431 23.1363H117.703C117.365 23.1363 117.04 23.0017 116.8 22.7622C116.56 22.5227 116.426 22.1979 116.426 21.8592C116.426 21.5205 116.56 21.1956 116.8 20.9561C117.04 20.7166 117.365 20.5821 117.703 20.5821H140.431C140.769 20.5821 141.094 20.7166 141.334 20.9561C141.574 21.1956 141.708 21.5205 141.708 21.8592C141.708 22.1979 141.574 22.5227 141.334 22.7622C141.094 23.0017 140.769 23.1363 140.431 23.1363Z" fill="#CCCCCC"/>
<path d="M140.431 27.9758H100.894C100.555 27.9758 100.23 27.8412 99.9902 27.6017C99.7506 27.3622 99.616 27.0374 99.616 26.6987C99.616 26.36 99.7506 26.0351 99.9902 25.7956C100.23 25.5561 100.555 25.4216 100.894 25.4216H140.431C140.769 25.4216 141.094 25.5561 141.334 25.7956C141.574 26.0351 141.708 26.36 141.708 26.6987C141.708 27.0374 141.574 27.3622 141.334 27.6017C141.094 27.8412 140.769 27.9758 140.431 27.9758Z" fill="#CCCCCC"/>
<path d="M112.19 18.2295H89.4628C89.1242 18.2291 88.7997 18.0944 88.5604 17.8549C88.3212 17.6155 88.1868 17.2909 88.1868 16.9524C88.1868 16.614 88.3212 16.2894 88.5604 16.05C88.7997 15.8105 89.1242 15.6758 89.4628 15.6754H112.19C112.358 15.6751 112.524 15.708 112.679 15.7721C112.834 15.8362 112.975 15.9302 113.094 16.0488C113.213 16.1675 113.307 16.3083 113.372 16.4634C113.436 16.6184 113.469 16.7846 113.469 16.9524C113.469 17.1203 113.436 17.2865 113.372 17.4415C113.307 17.5966 113.213 17.7374 113.094 17.856C112.975 17.9747 112.834 18.0687 112.679 18.1328C112.524 18.1969 112.358 18.2297 112.19 18.2295Z" fill="#CCCCCC"/>
<path d="M124.696 18.2967H118.241C117.903 18.2967 117.578 18.1622 117.338 17.9227C117.098 17.6832 116.964 17.3583 116.964 17.0196C116.964 16.6809 117.098 16.3561 117.338 16.1166C117.578 15.8771 117.903 15.7426 118.241 15.7426H124.696C125.035 15.7426 125.36 15.8771 125.6 16.1166C125.839 16.3561 125.974 16.6809 125.974 17.0196C125.974 17.3583 125.839 17.6832 125.6 17.9227C125.36 18.1622 125.035 18.2967 124.696 18.2967Z" fill="#CCCCCC"/>
<path d="M95.9178 27.9757H89.4627C89.1242 27.9753 88.7997 27.8406 88.5604 27.6011C88.3212 27.3617 88.1868 27.0371 88.1868 26.6987C88.1868 26.3602 88.3212 26.0356 88.5604 25.7962C88.7997 25.5567 89.1242 25.422 89.4627 25.4216H95.9178C96.0857 25.4214 96.252 25.4542 96.4071 25.5183C96.5623 25.5824 96.7033 25.6765 96.8221 25.7951C96.9409 25.9137 97.0352 26.0545 97.0995 26.2096C97.1638 26.3646 97.1969 26.5308 97.1969 26.6987C97.1969 26.8665 97.1638 27.0327 97.0995 27.1877C97.0352 27.3428 96.9409 27.4836 96.8221 27.6023C96.7033 27.7209 96.5623 27.8149 96.4071 27.879C96.252 27.9431 96.0857 27.976 95.9178 27.9757Z" fill="#CCCCCC"/>
<path d="M112.19 68.454H89.4627C89.1239 68.454 88.799 68.3194 88.5594 68.0799C88.3198 67.8404 88.1852 67.5156 88.1852 67.1769C88.1852 66.8382 88.3198 66.5133 88.5594 66.2738C88.799 66.0343 89.1239 65.8998 89.4627 65.8998H112.19C112.358 65.8998 112.524 65.9328 112.679 65.997C112.834 66.0612 112.975 66.1552 113.093 66.2738C113.212 66.3924 113.306 66.5332 113.37 66.6881C113.434 66.8431 113.467 67.0092 113.467 67.1769C113.467 67.3446 113.434 67.5107 113.37 67.6656C113.306 67.8205 113.212 67.9613 113.093 68.0799C112.975 68.1985 112.834 68.2926 112.679 68.3568C112.524 68.4209 112.358 68.454 112.19 68.454Z" fill="#CCCCCC"/>
<path d="M140.431 68.454H117.703C117.365 68.454 117.04 68.3194 116.8 68.0799C116.56 67.8404 116.426 67.5156 116.426 67.1769C116.426 66.8382 116.56 66.5133 116.8 66.2738C117.04 66.0343 117.365 65.8998 117.703 65.8998H140.431C140.598 65.8998 140.764 65.9328 140.919 65.997C141.074 66.0612 141.215 66.1552 141.334 66.2738C141.453 66.3924 141.547 66.5332 141.611 66.6881C141.675 66.8431 141.708 67.0092 141.708 67.1769C141.708 67.3446 141.675 67.5107 141.611 67.6656C141.547 67.8205 141.453 67.9613 141.334 68.0799C141.215 68.1985 141.074 68.2926 140.919 68.3568C140.764 68.4209 140.598 68.454 140.431 68.454Z" fill="#CCCCCC"/>
<path d="M140.431 73.2935H100.894C100.555 73.2935 100.23 73.1589 99.9902 72.9194C99.7506 72.6799 99.616 72.3551 99.616 72.0164C99.616 71.6777 99.7506 71.3529 99.9902 71.1134C100.23 70.8739 100.555 70.7393 100.894 70.7393H140.431C140.599 70.7391 140.765 70.772 140.92 70.8361C141.075 70.9002 141.216 70.9942 141.335 71.1128C141.454 71.2314 141.548 71.3723 141.612 71.5273C141.677 71.6824 141.71 71.8486 141.71 72.0164C141.71 72.1842 141.677 72.3504 141.612 72.5055C141.548 72.6605 141.454 72.8014 141.335 72.92C141.216 73.0386 141.075 73.1326 140.92 73.1967C140.765 73.2608 140.599 73.2937 140.431 73.2935Z" fill="#CCCCCC"/>
<path d="M112.19 63.5473H89.4627C89.1239 63.5473 88.799 63.4127 88.5594 63.1732C88.3198 62.9337 88.1852 62.6089 88.1852 62.2702C88.1852 61.9315 88.3198 61.6067 88.5594 61.3672C88.799 61.1277 89.1239 60.9931 89.4627 60.9931H112.19C112.529 60.9931 112.854 61.1277 113.093 61.3672C113.333 61.6067 113.467 61.9315 113.467 62.2702C113.467 62.6089 113.333 62.9337 113.093 63.1732C112.854 63.4127 112.529 63.5473 112.19 63.5473Z" fill="#CCCCCC"/>
<path d="M124.696 63.6145H118.241C117.903 63.6145 117.578 63.4799 117.338 63.2404C117.098 63.0009 116.964 62.6761 116.964 62.3374C116.964 61.9987 117.098 61.6739 117.338 61.4344C117.578 61.1949 117.903 61.0603 118.241 61.0603H124.696C125.035 61.0603 125.36 61.1949 125.6 61.4344C125.839 61.6739 125.974 61.9987 125.974 62.3374C125.974 62.6761 125.839 63.0009 125.6 63.2404C125.36 63.4799 125.035 63.6145 124.696 63.6145Z" fill="#CCCCCC"/>
<path d="M95.9177 73.2935H89.4627C89.1239 73.2935 88.799 73.1589 88.5594 72.9194C88.3198 72.6799 88.1852 72.3551 88.1852 72.0164C88.1852 71.6777 88.3198 71.3529 88.5594 71.1134C88.799 70.8739 89.1239 70.7393 89.4627 70.7393H95.9177C96.0856 70.7391 96.2519 70.772 96.4071 70.8361C96.5623 70.9002 96.7033 70.9942 96.8221 71.1128C96.9409 71.2314 97.0352 71.3723 97.0995 71.5273C97.1638 71.6824 97.1969 71.8486 97.1969 72.0164C97.1969 72.1842 97.1638 72.3504 97.0995 72.5055C97.0352 72.6605 96.9409 72.8014 96.8221 72.92C96.7033 73.0386 96.5623 73.1326 96.4071 73.1967C96.2519 73.2608 96.0856 73.2937 95.9177 73.2935Z" fill="#CCCCCC"/>
<path d="M106.254 54.7433C105.772 54.7444 105.309 54.555 104.966 54.2162L96.4223 45.783C96.2546 45.6174 96.1214 45.4202 96.0305 45.2028C95.9396 44.9854 95.8928 44.7521 95.8928 44.5165C95.8928 44.2809 95.9396 44.0476 96.0305 43.8302C96.1214 43.6128 96.2546 43.4155 96.4223 43.25L104.931 34.8508C105.285 34.5026 105.763 34.3081 106.26 34.3097C106.757 34.3113 107.233 34.5087 107.586 34.8591C107.938 35.2124 108.136 35.6911 108.136 36.1901C108.136 36.6892 107.938 37.1679 107.586 37.5212L101.263 43.8416C101.066 44.039 100.955 44.3064 100.955 44.5853C100.955 44.8641 101.066 45.1315 101.263 45.3289L107.551 51.615C107.808 51.8712 107.983 52.1978 108.054 52.5535C108.125 52.9092 108.089 53.2779 107.95 53.6129C107.811 53.948 107.575 54.2342 107.274 54.4355C106.972 54.6367 106.617 54.7439 106.254 54.7433V54.7433Z" fill="#6C63FF"/>
<path d="M119.867 54.7434C119.504 54.7439 119.15 54.6367 118.848 54.4355C118.546 54.2343 118.311 53.948 118.172 53.6129C118.033 53.2779 117.997 52.9092 118.068 52.5535C118.138 52.1979 118.313 51.8712 118.57 51.615L124.859 45.3289C125.056 45.1315 125.166 44.8641 125.166 44.5853C125.166 44.3065 125.056 44.039 124.859 43.8417L118.536 37.5212C118.361 37.3464 118.222 37.1389 118.128 36.9105C118.033 36.6821 117.984 36.4373 117.984 36.1901C117.984 35.943 118.033 35.6982 118.128 35.4698C118.222 35.2414 118.361 35.0339 118.536 34.8591C118.888 34.5087 119.365 34.3113 119.862 34.3097C120.358 34.3081 120.836 34.5026 121.191 34.8508L129.699 43.25C129.867 43.4156 130 43.6128 130.091 43.8302C130.182 44.0476 130.229 44.2809 130.229 44.5165C130.229 44.7521 130.182 44.9854 130.091 45.2028C130 45.4202 129.867 45.6174 129.699 45.783L121.156 54.2162C120.813 54.5549 120.35 54.7444 119.867 54.7434Z" fill="#6C63FF"/>
</g>
<defs>
<clipPath id="clip0">
<rect width="180.291" height="116.715" fill="white"/>
</clipPath>
</defs>
</svg>
