<svg width="48" height="48" viewBox="0 0 48 48" fill="none" xmlns="http://www.w3.org/2000/svg">
<path d="M25.8799 24L36.9332 12.9467C37.1517 12.6916 37.2658 12.3635 37.2528 12.0279C37.2399 11.6924 37.1008 11.374 36.8633 11.1366C36.6258 10.8991 36.3075 10.76 35.972 10.747C35.6364 10.7341 35.3083 10.8482 35.0532 11.0667L23.9999 22.12L12.9465 11.0533C12.6955 10.8023 12.355 10.6612 11.9999 10.6612C11.6448 10.6612 11.3043 10.8023 11.0532 11.0533C10.8021 11.3044 10.6611 11.6449 10.6611 12C10.6611 12.3551 10.8021 12.6956 11.0532 12.9467L22.1199 24L11.0532 35.0533C10.9136 35.1729 10.8003 35.32 10.7202 35.4854C10.6402 35.6508 10.5952 35.831 10.5882 36.0146C10.5811 36.1982 10.612 36.3813 10.679 36.5524C10.7461 36.7235 10.8477 36.8789 10.9777 37.0089C11.1076 37.1388 11.263 37.2405 11.4341 37.3075C11.6052 37.3745 11.7883 37.4055 11.972 37.3984C12.1556 37.3913 12.3358 37.3463 12.5012 37.2663C12.6666 37.1863 12.8137 37.0729 12.9332 36.9333L23.9999 25.88L35.0532 36.9333C35.3083 37.1518 35.6364 37.2659 35.972 37.2529C36.3075 37.24 36.6258 37.1009 36.8633 36.8634C37.1008 36.626 37.2399 36.3076 37.2528 35.9721C37.2658 35.6365 37.1517 35.3084 36.9332 35.0533L25.8799 24Z" fill="#6B6B6B"/>
</svg>
